<svg width="5780" height="1832" viewBox="0 0 5780 1832" fill="none" xmlns="http://www.w3.org/2000/svg">
<path d="M2783.79 1815.63L2710.49 1528.88H2739.97L2800.53 1766.21L2860.88 1528.88H2886.28L2946.83 1766.21L3007.19 1528.88H3036.67L2963.76 1815.63H2929.8L2873.53 1595.43L2817.26 1815.63H2783.69H2783.79Z" fill="white"/>
<path d="M3153.49 1820.91C3134.67 1820.91 3117.54 1816.03 3102 1806.36C3086.57 1796.7 3074.22 1783.65 3064.95 1767.31C3055.69 1750.96 3051.11 1732.93 3051.11 1713.1C3051.11 1698.06 3053.8 1684.01 3059.08 1671.06C3064.36 1658 3071.73 1646.55 3081.09 1636.68C3090.45 1626.82 3101.31 1619.05 3113.75 1613.47C3126.2 1607.89 3139.45 1605.1 3153.49 1605.1C3172.32 1605.1 3189.45 1609.98 3204.98 1619.64C3220.52 1629.31 3232.87 1642.36 3242.03 1658.8C3251.2 1675.14 3255.88 1693.38 3255.88 1713.3C3255.88 1728.15 3253.19 1742.1 3247.91 1755.05C3242.63 1768 3235.26 1779.46 3225.9 1789.32C3216.54 1799.19 3205.68 1806.96 3193.33 1812.54C3180.98 1818.12 3167.73 1820.91 3153.49 1820.91ZM3153.49 1792.31C3167.44 1792.31 3179.89 1788.63 3191.04 1781.35C3202.2 1774.08 3210.96 1764.42 3217.43 1752.36C3223.91 1740.3 3227.19 1727.35 3227.19 1713.2C3227.19 1699.05 3223.91 1685.7 3217.33 1673.55C3210.76 1661.49 3202 1651.83 3190.84 1644.55C3179.69 1637.28 3167.24 1633.69 3153.49 1633.69C3139.75 1633.69 3127 1637.38 3115.95 1644.65C3104.79 1651.93 3096.03 1661.59 3089.55 1673.65C3083.08 1685.7 3079.79 1698.86 3079.79 1713.2C3079.79 1727.55 3083.08 1741.3 3089.85 1753.26C3096.52 1765.21 3105.49 1774.68 3116.64 1781.75C3127.8 1788.83 3140.15 1792.31 3153.49 1792.31Z" fill="white"/>
<path d="M3302.89 1815.63V1610.88H3331.57V1639.17C3338.84 1628.81 3348.2 1620.54 3359.86 1614.36C3371.51 1608.19 3384.06 1605.2 3397.7 1605.2C3405.57 1605.2 3413.24 1606.19 3420.61 1608.29L3408.96 1636.78C3403.18 1634.99 3397.6 1634.09 3392.12 1634.09C3381.07 1634.09 3370.91 1636.78 3361.75 1642.26C3352.59 1647.74 3345.22 1655.02 3339.74 1664.18C3334.26 1673.35 3331.57 1683.51 3331.57 1694.67V1815.73H3302.89V1815.63Z" fill="white"/>
<path d="M3616.71 1815.63H3583.75L3526.48 1716.69L3485.54 1765.61V1815.63H3456.86V1508.45H3485.54V1721.07L3577.87 1610.88H3615.32L3545.9 1693.38L3616.71 1815.63Z" fill="white"/>
<path d="M3843.98 1819.52C3832.83 1819.22 3821.87 1817.22 3811.21 1813.34C3800.56 1809.55 3791.29 1804.37 3783.33 1797.79C3775.46 1791.22 3769.78 1783.85 3766.3 1775.48L3791.09 1764.82C3793.29 1770.1 3797.37 1774.98 3803.25 1779.46C3809.22 1783.95 3815.99 1787.43 3823.56 1790.12C3831.23 1792.81 3838.8 1794.11 3846.27 1794.11C3854.64 1794.11 3862.4 1792.71 3869.58 1790.02C3876.85 1787.33 3882.72 1783.35 3887.3 1778.27C3891.89 1773.18 3894.18 1767.11 3894.18 1760.13C3894.18 1752.66 3891.69 1746.68 3886.81 1742.4C3881.93 1738.11 3875.65 1734.73 3868.18 1732.13C3860.71 1729.64 3852.94 1727.15 3845.08 1724.86C3830.63 1720.88 3817.89 1716.49 3806.83 1711.71C3795.78 1706.93 3787.11 1700.85 3780.94 1693.38C3774.76 1685.9 3771.67 1676.34 3771.67 1664.58C3771.67 1652.13 3775.16 1641.37 3782.23 1632.3C3789.3 1623.23 3798.47 1616.16 3809.82 1611.18C3821.17 1606.19 3833.42 1603.7 3846.37 1603.7C3863 1603.7 3878.24 1607.29 3891.88 1614.56C3905.53 1621.84 3915.49 1631.4 3921.66 1643.46L3898.56 1657.21C3896.07 1651.63 3892.18 1646.75 3886.91 1642.66C3881.53 1638.58 3875.55 1635.39 3868.78 1633C3862.01 1630.71 3855.13 1629.41 3848.16 1629.31C3839.4 1629.21 3831.33 1630.41 3823.76 1633.1C3816.29 1635.79 3810.22 1639.67 3805.64 1644.85C3801.05 1650.03 3798.76 1656.41 3798.76 1663.88C3798.76 1671.36 3801.05 1677.14 3805.54 1681.02C3810.02 1684.91 3816.09 1688.1 3823.86 1690.49C3831.53 1692.88 3840.3 1695.67 3849.96 1698.76C3862.41 1702.74 3874.06 1707.23 3884.91 1712.31C3895.77 1717.39 3904.63 1723.67 3911.31 1731.14C3917.98 1738.61 3921.27 1748.18 3921.17 1759.63C3921.17 1771.89 3917.48 1782.65 3910.11 1791.82C3902.74 1800.98 3893.18 1807.96 3881.43 1812.84C3869.68 1817.72 3857.13 1819.91 3843.78 1819.52H3843.98Z" fill="white"/>
<path d="M4073.45 1639.47H4024.55L4024.35 1815.63H3995.66L3995.86 1639.47H3958.81V1610.78H3995.86L3995.66 1546.51H4024.35L4024.55 1610.78H4073.45V1639.47Z" fill="white"/>
<path d="M4285.09 1610.88H4313.78V1815.63H4285.09L4284.1 1777.57C4277.42 1790.52 4268.06 1800.98 4256.01 1809.05C4243.96 1817.12 4229.72 1821.01 4212.99 1821.01C4197.95 1821.01 4183.9 1818.22 4170.86 1812.54C4157.81 1806.86 4146.26 1799.09 4136.3 1789.13C4126.34 1779.16 4118.57 1767.6 4112.99 1754.55C4107.42 1741.4 4104.63 1727.35 4104.63 1712.41C4104.63 1697.46 4107.42 1683.81 4112.89 1670.86C4118.47 1657.91 4126.04 1646.45 4135.8 1636.68C4145.56 1626.82 4156.91 1619.15 4169.76 1613.67C4182.61 1608.19 4196.45 1605.4 4211.19 1605.4C4228.22 1605.4 4243.16 1609.48 4255.81 1617.55C4268.46 1625.62 4278.62 1636.28 4286.09 1649.44L4285.09 1611.18V1610.88ZM4212.49 1793.11C4227.13 1793.11 4239.68 1789.52 4250.13 1782.35C4260.59 1775.18 4268.76 1765.51 4274.44 1753.36C4280.11 1741.2 4282.9 1727.85 4282.9 1713.2C4282.9 1698.56 4280.01 1684.61 4274.34 1672.55C4268.56 1660.5 4260.49 1650.93 4249.94 1643.76C4239.38 1636.68 4226.93 1633.1 4212.49 1633.1C4198.05 1633.1 4184.8 1636.68 4172.85 1643.86C4160.9 1651.03 4151.44 1660.69 4144.37 1672.85C4137.29 1685.01 4133.81 1698.46 4133.81 1713.2C4133.81 1727.95 4137.39 1741.6 4144.66 1753.66C4151.93 1765.71 4161.5 1775.38 4173.45 1782.45C4185.4 1789.52 4198.35 1793.11 4212.49 1793.11Z" fill="white"/>
<path d="M4366.96 1815.63V1610.88H4395.64V1639.17C4402.91 1628.81 4412.27 1620.54 4423.93 1614.36C4435.58 1608.19 4448.13 1605.2 4461.77 1605.2C4469.64 1605.2 4477.31 1606.19 4484.68 1608.29L4473.03 1636.78C4467.25 1634.99 4461.67 1634.09 4456.2 1634.09C4445.14 1634.09 4434.98 1636.78 4425.82 1642.26C4416.66 1647.74 4409.29 1655.02 4403.81 1664.18C4398.33 1673.35 4395.64 1683.51 4395.64 1694.67V1815.73H4366.96V1815.63Z" fill="white"/>
<path d="M4630.28 1639.47H4581.38L4581.18 1815.63H4552.5L4552.7 1639.47H4515.65V1610.78H4552.7L4552.5 1546.51H4581.18L4581.38 1610.78H4630.28V1639.47Z" fill="white"/>
<path d="M4741.03 1819.52C4729.88 1819.22 4718.92 1817.22 4708.27 1813.34C4697.61 1809.55 4688.35 1804.37 4680.38 1797.79C4672.51 1791.22 4666.84 1783.85 4663.35 1775.48L4688.15 1764.82C4690.34 1770.1 4694.42 1774.98 4700.3 1779.46C4706.28 1783.95 4713.05 1787.43 4720.62 1790.12C4728.29 1792.81 4735.85 1794.11 4743.32 1794.11C4751.69 1794.11 4759.46 1792.71 4766.63 1790.02C4773.9 1787.33 4779.78 1783.35 4784.36 1778.27C4788.94 1773.18 4791.23 1767.11 4791.23 1760.13C4791.23 1752.66 4788.74 1746.68 4783.86 1742.4C4778.98 1738.11 4772.7 1734.73 4765.23 1732.13C4757.77 1729.64 4750 1727.15 4742.13 1724.86C4727.69 1720.88 4714.94 1716.49 4703.88 1711.71C4692.83 1706.93 4684.16 1700.85 4677.99 1693.38C4671.81 1685.9 4668.73 1676.34 4668.73 1664.58C4668.73 1652.13 4672.21 1641.37 4679.28 1632.3C4686.36 1623.23 4695.52 1616.16 4706.87 1611.18C4718.23 1606.19 4730.48 1603.7 4743.42 1603.7C4760.06 1603.7 4775.29 1607.29 4788.94 1614.56C4802.58 1621.84 4812.54 1631.4 4818.72 1643.46L4795.61 1657.21C4793.12 1651.63 4789.24 1646.75 4783.96 1642.66C4778.58 1638.58 4772.6 1635.39 4765.83 1633C4759.06 1630.71 4752.19 1629.41 4745.22 1629.31C4736.45 1629.21 4728.39 1630.41 4720.82 1633.1C4713.35 1635.79 4707.27 1639.67 4702.69 1644.85C4698.11 1650.03 4695.82 1656.41 4695.82 1663.88C4695.82 1671.36 4698.11 1677.14 4702.59 1681.02C4707.07 1684.91 4713.15 1688.1 4720.92 1690.49C4728.58 1692.88 4737.35 1695.67 4747.01 1698.76C4759.46 1702.74 4771.11 1707.23 4781.97 1712.31C4792.82 1717.39 4801.69 1723.67 4808.36 1731.14C4815.03 1738.61 4818.32 1748.18 4818.22 1759.63C4818.22 1771.89 4814.53 1782.65 4807.16 1791.82C4799.79 1800.98 4790.23 1807.96 4778.48 1812.84C4766.73 1817.72 4754.18 1819.91 4740.83 1819.52H4741.03Z" fill="white"/>
<path d="M5154.94 1688.89V1815.63H5126.26V1694.57C5126.26 1683.41 5123.57 1673.25 5118.09 1664.08C5112.62 1654.92 5105.35 1647.64 5096.18 1642.16C5087.02 1636.68 5076.86 1633.99 5065.71 1633.99C5054.55 1633.99 5044.49 1636.68 5035.33 1642.16C5026.17 1647.64 5018.8 1654.92 5013.32 1664.08C5007.84 1673.25 5005.15 1683.41 5005.15 1694.57V1815.63H4976.47V1508.45H5005.15V1639.07C5012.42 1628.71 5021.79 1620.44 5033.44 1614.26C5045.09 1608.09 5057.64 1605.1 5071.29 1605.1C5086.72 1605.1 5100.77 1608.88 5113.41 1616.36C5126.06 1623.83 5136.22 1633.99 5143.69 1646.65C5151.16 1659.3 5154.94 1673.45 5154.94 1688.79V1688.89Z" fill="white"/>
<path d="M5294.08 1820.91C5275.26 1820.91 5258.13 1816.03 5242.59 1806.36C5227.15 1796.7 5214.81 1783.65 5205.54 1767.31C5196.28 1750.96 5191.7 1732.93 5191.7 1713.1C5191.7 1698.06 5194.39 1684.01 5199.67 1671.06C5204.95 1658 5212.32 1646.55 5221.68 1636.68C5231.04 1626.82 5241.9 1619.05 5254.34 1613.47C5266.79 1607.89 5280.04 1605.1 5294.08 1605.1C5309.22 1605.1 5323.16 1608.09 5335.91 1614.06C5348.66 1620.04 5359.62 1628.51 5368.88 1639.27C5378.14 1650.03 5385.01 1662.69 5389.79 1677.13C5394.57 1691.58 5396.47 1707.22 5395.67 1724.06H5222.08C5223.67 1737.02 5227.85 1748.67 5234.43 1758.84C5241.1 1769.1 5249.46 1777.17 5259.82 1783.15C5270.18 1789.13 5281.53 1792.11 5294.08 1792.31C5307.73 1792.31 5320.08 1788.73 5331.03 1781.65C5341.99 1774.58 5350.85 1764.81 5357.52 1752.36L5386.61 1759.14C5378.44 1777.27 5366.09 1792.11 5349.56 1803.67C5333.02 1815.23 5314.6 1821.01 5294.08 1821.01V1820.91ZM5221.28 1700.95H5366.79C5365.79 1688.29 5362.01 1676.64 5355.23 1666.07C5348.46 1655.51 5339.8 1647.04 5329.14 1640.67C5318.48 1634.29 5306.83 1631.1 5294.18 1631.1C5281.53 1631.1 5269.88 1634.19 5259.42 1640.47C5248.87 1646.65 5240.3 1655.11 5233.63 1665.68C5226.96 1676.24 5222.87 1688 5221.38 1701.05L5221.28 1700.95Z" fill="white"/>
<path d="M5442.98 1815.63V1610.88H5471.66V1639.17C5478.93 1628.81 5488.3 1620.54 5499.95 1614.36C5511.6 1608.19 5524.15 1605.2 5537.8 1605.2C5545.66 1605.2 5553.33 1606.19 5560.7 1608.29L5549.05 1636.78C5543.27 1634.99 5537.7 1634.09 5532.22 1634.09C5521.16 1634.09 5511 1636.78 5501.84 1642.26C5492.68 1647.74 5485.31 1655.02 5479.83 1664.18C5474.35 1673.35 5471.66 1683.51 5471.66 1694.67V1815.73H5442.98V1815.63Z" fill="white"/>
<path d="M5677.92 1820.91C5659.1 1820.91 5641.97 1816.03 5626.43 1806.36C5610.99 1796.7 5598.64 1783.65 5589.38 1767.31C5580.12 1750.96 5575.54 1732.93 5575.54 1713.1C5575.54 1698.06 5578.23 1684.01 5583.51 1671.06C5588.78 1658 5596.15 1646.55 5605.52 1636.68C5614.88 1626.82 5625.73 1619.05 5638.18 1613.47C5650.63 1607.89 5663.88 1605.1 5677.92 1605.1C5693.06 1605.1 5707 1608.09 5719.75 1614.06C5732.5 1620.04 5743.45 1628.51 5752.72 1639.27C5761.98 1650.03 5768.85 1662.69 5773.63 1677.13C5778.41 1691.58 5780.31 1707.22 5779.51 1724.06H5605.91C5607.51 1737.02 5611.69 1748.67 5618.26 1758.84C5624.94 1769.1 5633.3 1777.17 5643.66 1783.15C5654.02 1789.13 5665.37 1792.11 5677.92 1792.31C5691.57 1792.31 5703.92 1788.73 5714.87 1781.65C5725.83 1774.58 5734.69 1764.81 5741.36 1752.36L5770.44 1759.14C5762.28 1777.27 5749.93 1792.11 5733.4 1803.67C5716.86 1815.23 5698.44 1821.01 5677.92 1821.01V1820.91ZM5605.12 1700.95H5750.63C5749.63 1688.29 5745.85 1676.64 5739.07 1666.07C5732.3 1655.51 5723.64 1647.04 5712.98 1640.67C5702.32 1634.29 5690.67 1631.1 5678.02 1631.1C5665.37 1631.1 5653.72 1634.19 5643.26 1640.47C5632.71 1646.65 5624.14 1655.11 5617.47 1665.68C5610.79 1676.24 5606.71 1688 5605.22 1701.05L5605.12 1700.95Z" fill="white"/>
<path d="M1795.13 368.238H1627.06V1078.27H1795.13V368.238Z" fill="white"/>
<path d="M2015.35 1078.26L1846.16 883.935C1821.95 855.27 1810.4 825.674 1810.4 798.032C1810.4 757.081 1828.28 735.676 1846.16 714.176L1994.31 536.227H2178.21L1989 754.103C1979.59 765.365 1972.24 778.673 1972.24 793.006C1972.24 809.386 1982.76 825.767 1996.45 841.123L2207.64 1078.36H2015.35V1078.26Z" fill="white"/>
<path d="M2543.24 753.731C2571.73 753.731 2572.76 734.466 2572.76 721.343C2572.76 666.711 2510.65 649.493 2459.71 649.493C2383.36 649.493 2345.64 674.808 2345.64 753.638H2543.24V753.731ZM2390.43 1078.26C2217.23 1078.26 2184.64 1005.48 2184.64 808.27C2184.64 580.714 2245.73 536.227 2459.62 536.227C2637.85 536.227 2734.6 564.52 2734.6 751.684C2734.6 812.365 2716.25 862.902 2650.04 862.902H2345.46C2345.46 928.609 2366.87 965.092 2453.38 965.092H2716.16V1078.36H2390.34L2390.43 1078.26Z" fill="white"/>
<path d="M3149.25 753.731C3177.37 753.731 3178.39 734.466 3178.39 721.343C3178.39 666.711 3117.12 649.493 3066.84 649.493C2991.51 649.493 2954.35 674.808 2954.35 753.638H3149.25V753.731ZM2998.68 1078.26C2827.9 1078.26 2795.77 1005.48 2795.77 808.27C2795.77 580.714 2856.02 536.227 3066.93 536.227C3242.64 536.227 3338.09 564.52 3338.09 751.684C3338.09 812.365 3320.03 862.902 3254.66 862.902H2954.35C2954.35 928.609 2975.49 965.092 3060.79 965.092H3319.93V1078.36H2998.58L2998.68 1078.26Z" fill="white"/>
<path d="M3562.88 952.621H3672.85C3763.82 952.621 3773.88 877.327 3773.88 802.127C3773.88 719.854 3763.82 651.634 3670.89 651.634H3602.82C3573.86 651.634 3562.78 661.685 3562.78 689.792V952.714L3562.88 952.621ZM3714.84 536.227C3884.88 536.227 3933.86 641.582 3933.86 802.127C3933.86 962.672 3884.88 1068.03 3714.84 1068.03H3562.78V1238.62H3406.81V636.649C3406.81 571.407 3441.82 536.32 3506.82 536.32H3714.84V536.227Z" fill="white"/>
<path d="M4002.67 368.238H4164.14V540.696H4324.58C4453.92 540.696 4545.08 597.468 4545.08 734.467V1078.27H4383.62V774.952C4383.62 693.796 4352.61 657.312 4269.74 657.312H4164.14V1078.27H4002.67V368.238Z" fill="white"/>
<path d="M5148.48 975.981C5148.48 1047.64 5112.82 1078.26 5046.52 1078.26H4818.19C4690.81 1078.26 4606.16 1021.96 4606.16 883.935V536.227H4765.21V843.078C4765.21 924.886 4796.78 961.741 4878.35 961.741H4952.75C4978.26 961.741 4988.41 951.504 4988.41 926.003V536.32H5148.48V976.167V975.981Z" fill="white"/>
<path d="M5383.14 921.071C5383.14 951.505 5393.29 961.65 5423.74 961.65H5492.74C5587.07 961.65 5597.22 892.685 5597.22 809.481C5597.22 732.419 5587.07 657.312 5494.7 657.312H5383.05V921.071H5383.14ZM5326.25 1078.27C5260.32 1078.27 5224.84 1042.81 5224.84 976.82V368.238H5383.14V540.696H5538.37C5710.82 540.696 5759.52 647.168 5759.52 809.481C5759.52 971.794 5710.82 1078.27 5538.37 1078.27H5326.34H5326.25Z" fill="white"/>
<path d="M428.629 806.409C428.629 740.981 452.187 709.151 482.451 667.27L844.306 262.882H1189.87C1126.92 155.48 1035.57 73.2063 920.569 31.3249C599.22 -85.9428 215.017 155.759 62.4902 570.85C-90.1295 986.033 46.6603 1417.6 368.009 1534.77C542.512 1598.43 735.638 1556.18 900.083 1437.79L480.868 948.806C431.981 883.378 428.629 834.795 428.629 806.316V806.409Z" fill="white"/>
<path d="M748.397 796.358C748.397 821.487 761.806 851.641 782.105 876.77L1097.03 1239C1148.9 1167.15 1192.94 1085.25 1226.09 995.155C1323.96 728.882 1302.82 455.816 1190.24 263.348L771.956 732.605C756.684 751.033 748.304 777.837 748.304 796.265L748.397 796.358Z" fill="white"/>
</svg>
